HIERARCHY
ROOT Hips
{
  OFFSET 46.5963 99.068 34.354
  CHANNELS 6 Xposition Yposition Zposition Zrotation Xrotation Yrotation
  JOINT spine
  {
    OFFSET 0 8.30104 0.477351
    CHANNELS 3 Zrotation Xrotation Yrotation
    JOINT spine1
    {
      OFFSET 0 10.4565 0
      CHANNELS 3 Zrotation Xrotation Yrotation
      JOINT spine2
      {
        OFFSET 0 10.0192 0
        CHANNELS 3 Zrotation Xrotation Yrotation
        JOINT Neck
        {
          OFFSET 0 25.7235 1.22641
          CHANNELS 3 Zrotation Xrotation Yrotation
          JOINT Head
          {
            OFFSET 0 7.77175 0
            CHANNELS 3 Zrotation Xrotation Yrotation
            End Site
            {
              OFFSET 0 18.812 -6.20394
            }
          }
        }
        JOINT RightShoulder
        {
          OFFSET -4.2188 10.82 -0.587439
          CHANNELS 3 Zrotation Xrotation Yrotation
          JOINT RightArm
          {
            OFFSET 0 14.1914 0
            CHANNELS 3 Zrotation Xrotation Yrotation
            JOINT RightArmRoll
            {
              OFFSET 0 7.16408 0
              CHANNELS 3 Zrotation Xrotation Yrotation
              JOINT RightForeArm
              {
                OFFSET 0 20.8665 0
                CHANNELS 3 Zrotation Xrotation Yrotation
                JOINT RightForeArmRoll
                {
                  OFFSET 0 8.03922 0
                  CHANNELS 3 Zrotation Xrotation Yrotation
                  JOINT RightHand
                  {
                    OFFSET 0 16.133 0
                    CHANNELS 3 Zrotation Xrotation Yrotation
                    End Site
                    {
                      OFFSET 0 0 0
                    }
                  }
                }
              }
            }
          }
        }
        JOINT LeftShoulder
        {
          OFFSET 4.2188 10.82 -0.587439
          CHANNELS 3 Zrotation Xrotation Yrotation
          JOINT LeftArm
          {
            OFFSET 0 14.1914 0
            CHANNELS 3 Zrotation Xrotation Yrotation
            JOINT LeftArmRoll
            {
              OFFSET 0 7.16408 0
              CHANNELS 3 Zrotation Xrotation Yrotation
              JOINT LeftForeArm
              {
                OFFSET 0 20.8665 0
                CHANNELS 3 Zrotation Xrotation Yrotation
                JOINT LeftForeArmRoll
                {
                  OFFSET 0 8.03921 0
                  CHANNELS 3 Zrotation Xrotation Yrotation
                  JOINT LeftHand
                  {
                    OFFSET 0 16.133 0
                    CHANNELS 3 Zrotation Xrotation Yrotation
                    End Site
                    {
                      OFFSET 0 0 0
                    }
                  }
                }
              }
            }
          }
        }
      }
    }
  }
  JOINT RightUpLeg
  {
    OFFSET -7.35773 -1.34921 -1.13181
    CHANNELS 3 Zrotation Xrotation Yrotation
    JOINT RightUpLegRoll
    {
      OFFSET 0 18.9168 0
      CHANNELS 3 Zrotation Xrotation Yrotation
      JOINT RightLeg
      {
        OFFSET 0 -23.4256 0
        CHANNELS 3 Zrotation Xrotation Yrotation
        JOINT RightLegRoll
        {
          OFFSET 0 23.5023 0
          CHANNELS 3 Zrotation Xrotation Yrotation
          JOINT RightFoot
          {
            OFFSET 0 19.5617 0
            CHANNELS 3 Zrotation Xrotation Yrotation
            JOINT RightToeBase
            {
              OFFSET 0 16.3526 0
              CHANNELS 3 Zrotation Xrotation Yrotation
              End Site
              {
                OFFSET 0.00693125 7.91944 -0.912837
              }
            }
          }
        }
      }
    }
  }
  JOINT LeftUpLeg
  {
    OFFSET 7.35773 -1.34921 -1.13181
    CHANNELS 3 Zrotation Xrotation Yrotation
    JOINT LeftUpLegRoll
    {
      OFFSET 0 18.9169 0
      CHANNELS 3 Zrotation Xrotation Yrotation
      JOINT LeftLeg
      {
        OFFSET 0 23.4255 0
        CHANNELS 3 Zrotation Xrotation Yrotation
        JOINT LeftLegRoll
        {
          OFFSET 0 23.7195 0
          CHANNELS 3 Zrotation Xrotation Yrotation
          JOINT LeftFoot
          {
            OFFSET 0 19.3444 0
            CHANNELS 3 Zrotation Xrotation Yrotation
            JOINT LeftToeBase
            {
              OFFSET 0 16.3526 0
              CHANNELS 3 Zrotation Xrotation Yrotation
              End Site
              {
                OFFSET -0.0310629 7.91943 -0.912837
              }
            }
          }
        }
      }
    }
  }
}
MOTION
Frames: 12
Frame Time: 0.00208333
49.5978 55.347 -0.931081 1.21545 -32.0032 8.25965 0.253682 4.01924 -1.15801 0.614698 12.028 -2.37409 0.64854 13.6725 -2.39191 0.603441 24.1251 -2.12216 -1.50441 -6.84595 -2.14132 73.4899 -1.84055 -2.54958 103.721 33.3534 -48.012 3.14724e-007 5.3961e-007 -5.17715e-006 165.16 82.4577 -172.645 -5.95939e-006 3.18976e-006 -3.00989 8.03023 -4.9512 0.697595 -65.053 1.65706 -0.126638 -104.792 35.433 17.7518 -3.18055e-015 -1.27222e-014 -3.18055e-015 -17.485 75.7516 17.3989 5.81007e-006 9.10023e-006 3.00729 -8.02985 -4.9509 -0.697568 139.106 46.738 46.2275 180 1.52525e-005 178.35 -19.3914 82.2098 19.7794 2.09289e-006 -5.90369e-006 2.19431 -31.2944 72.3987 25.2137 8.13125 25.2363 -3.47732 -154.811 55.8549 -29.1681 -1.06817e-005 1.05815e-005 -2.03066 151.353 -79.3288 146.894 7.57492e-007 -9.72378e-006 -2.5775 30.447 72.9345 -25.8709 -8.17652 25.8402 3.50084 
49.601 55.352 -0.935056 1.21554 -32.0046 8.25921 0.253803 4.01946 -1.15793 0.614569 12.0291 -2.37477 0.648263 13.6736 -2.39253 0.615468 24.1575 -2.12846 -1.4989 -6.85311 -2.14225 73.5086 -1.83721 -2.54975 103.602 33.3119 -47.8735 3.14724e-007 5.3961e-007 -5.17715e-006 165.103 82.4609 -172.582 -5.95939e-006 3.18976e-006 -3.00989 8.03023 -4.9512 0.697595 -65.0496 1.65327 -0.125057 -104.736 35.3062 17.8349 -1.27222e-014 9.54166e-015 -9.54166e-015 -17.565 75.9582 17.5327 5.81007e-006 9.10023e-006 3.00729 -8.02985 -4.9509 -0.697568 139.112 46.7368 46.2202 180 1.52525e-005 178.35 -19.3946 82.214 19.7824 2.09289e-006 -5.90369e-006 2.19431 -31.2906 72.3971 25.2115 8.13125 25.2363 -3.47732 -154.81 55.8513 -29.1674 -1.06817e-005 1.05815e-005 -2.03056 151.349 -79.3321 146.893 7.57492e-007 -9.72378e-006 -2.57754 30.4385 72.93 -25.8622 -8.17684 25.8449 3.50158 
49.5993 55.3517 -0.93203 1.21545 -32.0059 8.2585 0.253913 4.01962 -1.15782 0.614402 12.0301 -2.3754 0.647942 13.6745 -2.3931 0.628182 24.1891 -2.13487 -1.49378 -6.85928 -2.14311 73.5278 -1.83389 -2.54998 103.485 33.2716 -47.7353 3.14724e-007 5.3961e-007 -5.17715e-006 165.047 82.464 -172.518 -5.95939e-006 3.18976e-006 -3.00989 8.03023 -4.9512 0.697595 -65.0456 1.64921 -0.123402 -104.681 35.1806 17.9198 -3.18055e-015 6.36111e-015 -7.95139e-015 -17.6506 76.1657 17.6723 5.81007e-006 9.10023e-006 3.00729 -8.02985 -4.9509 -0.697568 139.118 46.7358 46.2127 180 1.52525e-005 178.35 -19.3984 82.2189 19.7859 2.09289e-006 -5.90369e-006 2.19431 -31.2858 72.3946 25.2081 8.13125 25.2363 -3.47732 -154.809 55.8476 -29.1674 -1.06817e-005 1.05815e-005 -2.03047 151.344 -79.3354 146.89 7.57492e-007 -9.72378e-006 -2.57758 30.4295 72.9254 -25.8531 -8.17718 25.8497 3.50235 
49.6006 55.3508 -0.932755 1.21524 -32.0071 8.2576 0.254016 4.01974 -1.15768 0.614209 12.031 -2.37599 0.64759 13.6754 -2.39363 0.64138 24.2201 -2.14136 -1.48891 -6.86477 -2.14392 73.5474 -1.8306 -2.55026 103.369 33.232 -47.5973 3.14724e-007 5.3961e-007 -5.17715e-006 164.99 82.467 -172.455 -5.95939e-006 3.18976e-006 -3.00989 8.03023 -4.9512 0.697595 -65.0412 1.64495 -0.121694 -104.626 35.0557 18.006 5.29669e-031 6.36111e-015 -4.77083e-015 -17.7415 76.3738 17.8175 5.81007e-006 9.10023e-006 3.00729 -8.02985 -4.9509 -0.697568 139.125 46.7351 46.2052 180 1.52525e-005 178.35 -19.4027 82.2245 19.7897 2.09289e-006 -5.90369e-006 2.19431 -31.2803 72.3917 25.2039 8.13125 25.2363 -3.47732 -154.807 55.8439 -29.1679 -1.06817e-005 1.05815e-005 -2.03039 151.339 -79.3389 146.888 7.57492e-007 -9.72378e-006 -2.57764 30.4203 72.9205 -25.8437 -8.17752 25.8546 3.50313 
49.595 55.3572 -0.930646 1.21496 -32.0083 8.25659 0.254115 4.01983 -1.15752 0.614001 12.0318 -2.37657 0.647221 13.6763 -2.39413 0.654858 24.2508 -2.14789 -1.4842 -6.86986 -2.14469 73.5672 -1.82732 -2.55056 103.253 33.1927 -47.4595 3.14724e-007 5.3961e-007 -5.17715e-006 164.934 82.47 -172.392 -5.95939e-006 3.18976e-006 -3.00989 8.03023 -4.9512 0.697595 -65.0366 1.64059 -0.119956 -104.572 34.9314 18.0928 -3.18055e-015 -9.54166e-015 -0 -17.8376 76.5822 17.968 5.81007e-006 9.10023e-006 3.00729 -8.02985 -4.9509 -0.697568 139.131 46.7344 46.1975 180 1.52525e-005 178.35 -19.4073 82.2303 19.7937 2.09289e-006 -5.90369e-006 2.19431 -31.2744 72.3884 25.1991 8.13125 25.2363 -3.47732 -154.805 55.8401 -29.1688 -1.06817e-005 1.05815e-005 -2.03031 151.333 -79.3425 146.885 7.57492e-007 -9.72378e-006 -2.57771 30.4109 72.9156 -25.8341 -8.17787 25.8596 3.50393 
49.5877 55.3505 -0.933346 1.21465 -32.0095 8.25556 0.254213 4.01991 -1.15736 0.61379 12.0327 -2.37714 0.646848 13.6772 -2.39463 0.668411 24.2814 -2.15445 -1.47953 -6.87486 -2.14546 73.587 -1.82404 -2.55087 103.138 33.1531 -47.3218 3.14724e-007 5.3961e-007 -5.17715e-006 164.877 82.4729 -172.329 -5.95939e-006 3.18976e-006 -3.00989 8.03023 -4.9512 0.697595 -65.032 1.63621 -0.118211 -104.517 34.8071 18.1796 3.18055e-015 0 1.59028e-015 -17.9386 76.7907 18.1237 5.81007e-006 9.10023e-006 3.00729 -8.02985 -4.9509 -0.697568 139.137 46.7337 46.1899 180 1.52525e-005 178.35 -19.412 82.2363 19.7978 2.09289e-006 -5.90369e-006 2.19431 -31.2685 72.385 25.1943 8.13125 25.2363 -3.47732 -154.803 55.8362 -29.1696 -1.06817e-005 1.05815e-005 -2.03023 151.328 -79.346 146.882 7.57492e-007 -9.72378e-006 -2.57778 30.4014 72.9106 -25.8245 -8.17822 25.8647 3.50474 
49.5853 55.3579 -0.929981 1.21438 -32.0107 8.25458 0.254312 4.02001 -1.1572 0.613586 12.0336 -2.37773 0.646483 13.678 -2.39514 0.681836 24.3122 -2.16098 -1.47478 -6.88005 -2.14624 73.6068 -1.82076 -2.55116 103.023 33.1128 -47.1842 3.14724e-007 5.3961e-007 -5.17715e-006 164.82 82.4758 -172.266 -5.95939e-006 3.18976e-006 -3.00989 8.03023 -4.9512 0.697595 -65.0275 1.63187 -0.116481 -104.462 34.6827 18.2659 -3.18055e-015 0 -6.36111e-015 -18.0444 76.9988 18.2841 5.81007e-006 9.10023e-006 3.00729 -8.02985 -4.9509 -0.697568 139.144 46.733 46.1822 180 1.52525e-005 178.35 -19.4165 82.2421 19.8019 2.09289e-006 -5.90369e-006 2.19431 -31.2627 72.3818 25.1896 8.13125 25.2363 -3.47732 -154.8 55.8324 -29.1704 -1.06817e-005 1.05815e-005 -2.03014 151.322 -79.3496 146.879 7.57492e-007 -9.72378e-006 -2.57784 30.3921 72.9057 -25.815 -8.17857 25.8697 3.50553 
49.5879 55.3638 -0.932104 1.21421 -32.0119 8.25373 0.254417 4.02013 -1.15707 0.6134 12.0345 -2.37833 0.646141 13.6789 -2.39568 0.694929 24.3434 -2.16747 -1.46984 -6.88573 -2.14706 73.6263 -1.81746 -2.55143 102.907 33.0714 -47.0467 3.14724e-007 5.3961e-007 -5.17715e-006 164.764 82.4788 -172.203 -5.95939e-006 3.18976e-006 -3.00989 8.03023 -4.9512 0.697595 -65.0232 1.62767 -0.114788 -104.405 34.5577 18.351 -7.95139e-015 3.18055e-015 -3.18055e-015 -18.1546 77.2063 18.449 5.81007e-006 9.10023e-006 3.00729 -8.02985 -4.9509 -0.697568 139.15 46.7322 46.1747 180 1.52525e-005 178.35 -19.4207 82.2475 19.8056 2.09289e-006 -5.90369e-006 2.19431 -31.2574 72.379 25.1856 8.13125 25.2363 -3.47732 -154.799 55.8287 -29.1708 -1.06817e-005 1.05815e-005 -2.03006 151.317 -79.353 146.876 7.57492e-007 -9.72378e-006 -2.57789 30.3829 72.9009 -25.8057 -8.17891 25.8746 3.50632 
49.5849 55.3626 -0.928403 1.21417 -32.0132 8.2531 0.254531 4.02031 -1.15696 0.613245 12.0355 -2.37898 0.645833 13.68 -2.39626 0.707486 24.3752 -2.17387 -1.4646 -6.8922 -2.14794 73.6453 -1.81414 -2.55164 102.791 33.0283 -46.9092 3.14724e-007 5.3961e-007 -5.17715e-006 164.707 82.4819 -172.139 -5.95939e-006 3.18976e-006 -3.00989 8.03023 -4.9512 0.697595 -65.0194 1.62369 -0.113155 -104.347 34.4319 18.4343 -4.77083e-015 9.54166e-015 -1.59028e-015 -18.2689 77.413 18.6179 5.81007e-006 9.10023e-006 3.00729 -8.02985 -4.9509 -0.697568 139.156 46.7312 46.1673 180 1.52525e-005 178.35 -19.4244 82.2522 19.8089 2.09289e-006 -5.90369e-006 2.19431 -31.2529 72.3768 25.1826 8.13125 25.2363 -3.47732 -154.798 55.825 -29.1705 -1.06817e-005 1.05815e-005 -2.02997 151.312 -79.3564 146.874 7.57492e-007 -9.72378e-006 -2.57794 30.3741 72.8963 -25.7968 -8.17924 25.8793 3.50708 
49.5806 55.3607 -0.92725 1.21434 -32.0147 8.25278 0.254657 4.02056 -1.15691 0.61313 12.0366 -2.37967 0.645573 13.6811 -2.39691 0.719304 24.4079 -2.18015 -1.45895 -6.89975 -2.14891 73.6637 -1.81078 -2.55178 102.675 32.983 -46.7718 3.14724e-007 5.3961e-007 -5.17715e-006 164.649 82.485 -172.075 -5.95939e-006 3.18976e-006 -3.00989 8.03023 -4.9512 0.697595 -65.0162 1.62001 -0.111604 -104.286 34.3048 18.5151 3.18055e-015 9.54166e-015 -0 -18.3869 77.6183 18.7905 5.81007e-006 9.10023e-006 3.00729 -8.02985 -4.9509 -0.697568 139.162 46.7299 46.1601 180 1.52525e-005 178.35 -19.4273 82.256 19.8117 2.09289e-006 -5.90369e-006 2.19431 -31.2495 72.3755 25.1809 8.13125 25.2363 -3.47732 -154.797 55.8215 -29.1695 -1.06817e-005 1.05815e-005 -2.02987 151.309 -79.3596 146.872 7.57492e-007 -9.72378e-006 -2.57796 30.3658 72.892 -25.7884 -8.17956 25.8839 3.50781 
49.5811 55.364 -0.926198 1.21476 -32.0162 8.25283 0.254797 4.02091 -1.15691 0.613068 12.0379 -2.38043 0.645374 13.6823 -2.39763 0.730178 24.4417 -2.18629 -1.45276 -6.90868 -2.14999 73.6814 -1.80739 -2.55184 102.557 32.9352 -46.6343 3.14724e-007 5.3961e-007 -5.17715e-006 164.591 82.4883 -172.01 -5.95939e-006 3.18976e-006 -3.00989 8.03023 -4.9512 0.697595 -65.0137 1.61671 -0.110158 -104.223 34.1762 18.593 2.64834e-031 9.54166e-015 -1.59028e-015 -18.5084 77.8222 18.9663 5.81007e-006 9.10023e-006 3.00729 -8.02985 -4.9509 -0.697568 139.167 46.7283 46.153 180 1.52525e-005 178.35 -19.4293 82.2586 19.8137 2.09289e-006 -5.90369e-006 2.19431 -31.2475 72.3752 25.1809 8.13125 25.2363 -3.47732 -154.799 55.8181 -29.1675 -1.06817e-005 1.05815e-005 -2.02976 151.306 -79.3626 146.872 7.57492e-007 -9.72378e-006 -2.57797 30.3581 72.8879 -25.7806 -8.17986 25.8882 3.50849 
49.5809 55.3661 -0.92469 1.21549 -32.0179 8.25336 0.254956 4.02136 -1.15698 0.613069 12.0393 -2.38127 0.64525 13.6838 -2.39846 0.739906 24.4769 -2.19224 -1.44594 -6.91928 -2.1512 73.698 -1.80394 -2.55178 102.438 32.8843 -46.4968 3.14724e-007 5.3961e-007 -5.17715e-006 164.533 82.4918 -171.944 -5.95939e-006 3.18976e-006 -3.00989 8.03023 -4.9512 0.697595 -65.0121 1.61387 -0.108838 -104.157 34.0457 18.6672 -2.22639e-014 1.90833e-014 -2.06736e-014 -18.6327 78.0242 19.1447 5.81007e-006 9.10023e-006 3.00729 -8.02985 -4.9509 -0.697568 139.172 46.7262 46.1463 180 1.52525e-005 178.35 -19.4302 82.2597 19.8149 2.09289e-006 -5.90369e-006 2.19431 -31.2471 72.3762 25.183 8.13125 25.2363 -3.47732 -154.801 55.8149 -29.1642 -1.06817e-005 1.05815e-005 -2.02965 151.305 -79.3654 146.873 7.57492e-007 -9.72378e-006 -2.57794 30.3511 72.8842 -25.7735 -8.18014 25.8922 3.50913 
